<?xml version="1.0" encoding="UTF-8"?>
<svg xmlns="http://www.w3.org/2000/svg" xmlns:xlink="http://www.w3.org/1999/xlink" width="49pt" height="41pt" viewBox="0 0 49 41" version="1.1">
<defs>
<filter id="alpha" filterUnits="objectBoundingBox" x="0%" y="0%" width="100%" height="100%">
  <feColorMatrix type="matrix" in="SourceGraphic" values="0 0 0 0 1 0 0 0 0 1 0 0 0 0 1 0 0 0 1 0"/>
</filter>
<mask id="mask0">
  <g filter="url(#alpha)">
<rect x="0" y="0" width="49" height="41" style="fill:rgb(0%,0%,0%);fill-opacity:0.0901961;stroke:none;"/>
  </g>
</mask>
<clipPath id="clip1">
  <rect width="49" height="41"/>
</clipPath>
<g id="surface6" clip-path="url(#clip1)">
<path style=" stroke:none;fill-rule:evenodd;fill:rgb(0%,0%,0%);fill-opacity:1;" d="M 14.445312 38.257812 C 17.042969 35.867188 18.617188 33.589844 19.761719 31.328125 C 20.609375 29.648438 21.152344 27.980469 21.871094 26.300781 C 22.113281 25.742188 22.4375 25.183594 22.710938 24.613281 C 23.265625 23.480469 24.148438 22.277344 26.050781 21.09375 C 27.910156 19.933594 29.882812 19.238281 31.808594 18.824219 C 34.980469 18.144531 38.609375 18.085938 41.734375 19.132812 C 44.292969 19.988281 45.777344 21.375 46.351562 22.671875 C 46.824219 23.726562 46.777344 24.808594 46.332031 25.894531 C 45.867188 27.03125 44.957031 28.191406 43.152344 29.40625 C 42.222656 30.027344 41.195312 30.519531 40.257812 30.886719 C 39.308594 31.257812 38.351562 31.484375 37.386719 31.761719 C 35.511719 32.300781 33.589844 32.695312 31.664062 33.089844 C 25.929688 34.261719 20.261719 35.546875 14.445312 38.257812 Z M 14.445312 38.257812 "/>
</g>
</defs>
<g id="surface1">
<path style="fill-rule:evenodd;fill:rgb(90.980392%,11.764706%,14.509804%);fill-opacity:1;stroke-width:37;stroke-linecap:butt;stroke-linejoin:miter;stroke:rgb(0%,0%,0%);stroke-opacity:1;stroke-miterlimit:10;" d="M 731.008929 1839.550495 C 692.243304 1649.354325 623.810108 1490.956269 540.938696 1344.210938 C 479.625717 1235.386338 408.423549 1134.856898 342.759327 1029.192359 C 320.607541 994.036681 301.81808 956.70846 280.655214 920.170255 C 238.32948 847.093845 204.112883 762.167207 206.288504 652.355088 C 208.464126 544.715511 239.516183 458.603849 284.413106 388.094989 C 358.186464 272.160252 481.603555 177.160918 647.346381 152.077934 C 782.828284 131.735042 909.805485 166.298209 999.797114 218.834223 C 1073.372688 261.890053 1130.334423 319.363662 1173.649075 387.10747 C 1218.941566 457.813834 1250.191406 541.357946 1252.762596 650.38005 C 1253.949298 706.273628 1244.851244 757.822123 1231.995297 800.877954 C 1218.941566 844.131288 1197.976483 880.471989 1179.384805 919.182736 C 1142.992586 994.826696 1097.304528 1064.150534 1051.61647 1133.671875 C 915.145647 1340.260861 786.981744 1550.997428 731.008929 1839.550495 Z M 731.008929 1839.550495 " transform="matrix(0.0197501,0,0,0.0197781,0,0)"/>
<use xlink:href="#surface6" mask="url(#mask0)"/>
<path style=" stroke:none;fill-rule:evenodd;fill:rgb(0%,0%,0%);fill-opacity:1;" d="M 18.03125 12.875 C 18.03125 14.878906 16.410156 16.503906 14.410156 16.503906 C 12.410156 16.503906 10.789062 14.878906 10.789062 12.875 C 10.789062 10.875 12.410156 9.25 14.410156 9.25 C 16.410156 9.25 18.03125 10.875 18.03125 12.875 Z M 18.03125 12.875 "/>
</g>
</svg>
